<svg width="37" height="25" viewBox="0 0 37 25" fill="none" xmlns="http://www.w3.org/2000/svg">
<path d="M29.4953 0C28.5578 2.34375 26.2922 3.74219 21.7063 3.42969C20.6359 3.28906 19.55 3.10937 18.4563 2.90625C9.15156 -2.98023e-07 0 -5.96046e-07 0 5.8125C2.61562 2.90625 9.19844 3.40625 17.5812 5.5C26.7062 7.78125 36.4719 8.71875 36.4719 1.45312C35.0344 2.96094 32.3 3.6875 28.925 3.82812C29.7062 3.01562 29.9016 1.74219 29.4953 0ZM9.65938 6.46094C4.13203 6.4375 0 7.71875 0 11.625C2.61562 8.71875 9.19844 8.90625 17.5812 11C26.7062 13.2812 36.4719 14.5312 36.4719 7.26562C33.7063 10.1719 26.3 10.3594 18.4563 7.89062C15.5109 6.96094 12.3625 6.46875 9.65938 6.46094ZM7.79219 11.8984C3.22656 11.8828 0 13.1172 0 17.4375C2.61562 14.5312 9.55781 13.9766 17.5812 15.9844C27.0344 18.3438 36.4719 18.8906 36.4719 13.0781C33.7063 15.9844 26.1516 14.8438 18.4563 13.3906C14.675 12.8047 10.9172 11.8984 7.79219 11.8984ZM7.79219 17.7031C3.22656 17.6953 0 18.9375 0 23.25C1.48672 21.6016 4.3375 20.8828 8.01094 20.8438C7.19844 21.6562 7.00312 22.9453 7.40937 24.7031C8.49531 21.9844 11.4719 20.6562 17.5891 21.7969C27.1672 23.5781 36.4719 24.7031 36.4719 18.8906C33.7063 21.7969 26.1516 20.3438 18.4563 18.8906C14.675 18.2969 10.9172 17.7109 7.79219 17.7031Z" fill="#C49A6C"/>
</svg>
